<svg xmlns="http://www.w3.org/2000/svg" data-name="Layer 1" viewBox="0 0 64 64"><path fill="#1e252d" d="M37.09 46.71A76.52 76.52 0 0 1 26.46 41.6c-1.37-.79-2.78-1.66-4.31-2.68l-.35-.24 0 .42c.05.57.11 1.13.17 1.67v.1l.08.05c1.06.7 2.25 1.42 3.51 2.16a74.25 74.25 0 0 0 14.52 6.49l.2.07.06-.21c.11-.41.22-.84.32-1.26l0-.18-.18-.06C39.31 47.53 38.17 47.13 37.09 46.71zM10.49 31.55l.14-.14.9-.88.14-.14-.13-.14C6.26 24.72 4.1 19.71 5.76 16.85c1-1.77 3.49-2.71 7.1-2.71a31.61 31.61 0 0 1 7.42 1h.2l.05-.2c.1-.39.19-.79.3-1.18l.06-.2-.21-.05a33.68 33.68 0 0 0-7.79-1c-4.31 0-7.28 1.21-8.6 3.5a5.85 5.85 0 0 0-.75 3c0 3.43 2.41 7.85 6.81 12.43zM56 35.17c-.61-.77-1.36-1.62-2.29-2.58l-.14-.15-.15.14c-.3.31-.61.61-.93.91l-.15.14.14.14c.87.91 1.55 1.67 2.19 2.46 3.68 4.54 5 8.52 3.61 10.92-1 1.73-3.51 2.69-7.06 2.69A28 28 0 0 1 47 49.48c-1-.17-2.11-.39-3.26-.68l-.19 0-.44 1.65.2.05c1.26.3 2.38.53 3.41.7a29.21 29.21 0 0 0 4.47.38c4.24 0 7.19-1.22 8.53-3.54C61.5 44.91 60.16 40.35 56 35.17zM18.74 36.62v-.09l-.07-.06c-1.74-1.3-3.34-2.62-4.75-3.91l-.14-.13-.14.13c-.31.29-.61.6-.91.89l-.15.15.16.14a61.21 61.21 0 0 0 5.8 4.72l.35.26 0-.44C18.81 37.74 18.77 37.19 18.74 36.62z"/><path fill="#1e252d" d="M43.05,15.7v-.16c-.15-.67-.32-1.33-.5-2l0-.1,0,0,0-.14C40.07,4.85,36.26,0,32,0S23.93,4.86,21.53,13.42l-.05.13c-.18.64-.35,1.29-.51,2v.11l0,.07v0a65.82,65.82,0,0,0-1.38,9c-.09,1-.16,2-.22,3-.07,1.48-.11,2.88-.11,4.29s0,2.83.11,4.33c.06,1,.13,2,.21,3v.08h0a66.82,66.82,0,0,0,1.39,8.9l0,.15v0c.16.7.33,1.39.56,2.12v.1C23.93,59.13,27.74,64,32,64s8.07-4.86,10.45-13.32l0-.14.05-.11c.19-.66.36-1.33.52-2,0,0,0-.07,0-.07h0l0-.06v0A73.5,73.5,0,0,0,44.79,32,72.63,72.63,0,0,0,43.05,15.7ZM32,62.29c-5.33,0-11.08-11.58-11.08-30.29S26.67,1.71,32,1.71,43.09,13.29,43.09,32,37.33,62.29,32,62.29Z"/><path fill="#1e252d" d="M41.85 38.92c-1.55 1-3 1.9-4.31 2.68S34.83 43.11 33.08 44l-.37.19.83.39 1.08.48.09 0 .08 0c1.22-.63 2.43-1.29 3.61-2s2.32-1.39 3.5-2.15l.09 0 .22-2.2zM29.36 45.79l-.09 0-.08 0c-1.91.81-3.85 1.54-5.77 2.14l-.18.06.43 1.65.2-.07a68.4 68.4 0 0 0 7-2.67l.41-.18-.4-.18zM20.51 49l-.05-.2-.19 0c-1.12.28-2.22.51-3.26.68a27.78 27.78 0 0 1-4.26.37c-3.54 0-5.95-.94-7-2.7-1.38-2.4-.06-6.38 3.61-10.92.7-.86 1.52-1.77 2.51-2.78l0-.05 0 0c.49-.5 1-1 1.53-1.5l.08-.12-.18-.09.28.05c1-.94 2-1.81 3.05-2.66.62-.51 1.27-1 1.95-1.51l.07-.06v-.09c0-.56.07-1.12.11-1.7l0-.43-.35.26A55.41 55.41 0 0 0 8.05 35.16C3.83 40.34 2.5 44.9 4.29 48c1.34 2.32 4.29 3.54 8.55 3.54a28.84 28.84 0 0 0 4.44-.38c1-.16 2.14-.39 3.4-.7l.21-.05-.06-.2C20.72 49.8 20.61 49.38 20.51 49zM26.46 22.39c1.46-.83 2.92-1.61 4.48-2.38l.39-.19-2-.9-.08 0c-1.21.61-2.42 1.27-3.62 2s-2.48 1.48-3.51 2.16l-.08.05v.1c-.06.54-.12 1.1-.17 1.67l0 .41.35-.23C23.7 24.05 25.11 23.17 26.46 22.39zM34.38 18.07l.33.17.09 0a58.82 58.82 0 0 1 5.77-2.15l.18-.05 0-.19c-.06-.27-.13-.53-.2-.79l-.17-.66-.2.06a68.13 68.13 0 0 0-7 2.68l-.41.18.41.19C33.55 17.66 34 17.86 34.38 18.07z"/><path fill="#1e252d" d="M37.54 22.39c1.35.78 2.76 1.66 4.32 2.69l.34.23 0-.41c-.05-.57-.11-1.13-.17-1.68v-.1l-.09-.05c-1.25-.81-2.4-1.52-3.5-2.15a74.58 74.58 0 0 0-14.53-6.5l-.2-.06-.06.2c-.11.41-.21.83-.31 1.25l-.05.18.18.06A71.47 71.47 0 0 1 37.54 22.39zM45.27 27.4v.09l.08.06a58 58 0 0 1 4.75 3.93l.14.13.13-.13.94-.92.14-.15-.15-.14a64.5 64.5 0 0 0-5.82-4.75l-.35-.25 0 .43C45.2 26.27 45.24 26.83 45.27 27.4z"/><path fill="#1e252d" d="M43.49 15l0 .19.2 0a31.4 31.4 0 0 1 7.41-1c3.61 0 6.07.94 7.1 2.71a4.39 4.39 0 0 1 .55 2.23c0 3-2.36 7.13-6.66 11.52a59 59 0 0 1-6.78 5.87l-.08.06v.09c0 .57-.07 1.12-.11 1.66l0 .44.36-.26C56.94 30.12 62.66 21.09 59.72 16c-1.33-2.29-4.31-3.5-8.61-3.5a33.76 33.76 0 0 0-7.8 1l-.2.05 0 .2C43.28 14.19 43.39 14.61 43.49 15zM34.84 26.57H29.16a.51.51 0 0 0-.44.25l-2.84 4.93a.45.45 0 0 0 0 .5l2.84 4.92a.49.49 0 0 0 .44.25h5.68a.5.5 0 0 0 .44-.25l2.84-4.92a.5.5 0 0 0 0-.5l-2.84-4.93A.52.52 0 0 0 34.84 26.57z"/></svg>