<svg xmlns="http://www.w3.org/2000/svg" viewBox="0 0 64 64"><path d="M60,18V16a3,3,0,0,0-3-3H53V10a3,3,0,0,0-3-3H46a3,3,0,0,0-3,3v3H21V10a3,3,0,0,0-3-3H14a3,3,0,0,0-3,3v3H7a3,3,0,0,0-3,3v2a3,3,0,0,0,3,3V49a3,3,0,0,0-3,3v2a3,3,0,0,0,3,3H57a3,3,0,0,0,3-3V52a3,3,0,0,0-3-3V21A3,3,0,0,0,60,18ZM45,10a1,1,0,0,1,1-1h4a1,1,0,0,1,1,1v3H45ZM13,10a1,1,0,0,1,1-1h4a1,1,0,0,1,1,1v3H13ZM6,18V16a1,1,0,0,1,1-1H57a1,1,0,0,1,1,1v2a1,1,0,0,1-1,1H7A1,1,0,0,1,6,18Zm25,3V43H9V21ZM58,52v2a1,1,0,0,1-1,1H7a1,1,0,0,1-1-1V52a1,1,0,0,1,1-1H57A1,1,0,0,1,58,52ZM9,49V45H55v4Zm46-6H33V21H55ZM20,40a8,8,0,1,0-8-8A8,8,0,0,0,20,40Zm0-14a6,6,0,1,1-6,6A6,6,0,0,1,20,26Zm-1,7H16V31h3V28h2v3h3v2H21v3H19Zm25,7a8,8,0,1,0-8-8A8,8,0,0,0,44,40Zm0-14a6,6,0,1,1-6,6A6,6,0,0,1,44,26Zm4,7H40V31h8Z" data-name="33 Battery, Automotive, Car"/></svg>