<svg xmlns="http://www.w3.org/2000/svg" viewBox="0 0 64 64"><path d="M55,5H9a5,5,0,0,0-5,5V48a5,5,0,0,0,5,5h8V51H9a3,3,0,0,1-3-3V15l52,0V48a3,3,0,0,1-3,3H47v2h8a5,5,0,0,0,5-5V10A5,5,0,0,0,55,5ZM6,13V10A3,3,0,0,1,9,7H55a3,3,0,0,1,3,3v3ZM8,9h3v2H8Zm5,0h3v2H13Zm5,0h3v2H18ZM42.07,47.42l.18-.42H47a1,1,0,0,0,1-1V40a1,1,0,0,0-1-1H42.25l-.18-.42,3.36-3.36a1,1,0,0,0,0-1.41l-4.24-4.25a1,1,0,0,0-1.41,0l-3.36,3.37L36,32.75V28a1,1,0,0,0-1-1H29a1,1,0,0,0-1,1v4.75l-.42.18-3.36-3.37a1,1,0,0,0-1.41,0l-4.24,4.25a1,1,0,0,0,0,1.41l3.36,3.36-.18.42H17a1,1,0,0,0-1,1v6a1,1,0,0,0,1,1h4.75l.18.42-3.36,3.36a1,1,0,0,0,0,1.41l4.24,4.25a1,1,0,0,0,1.41,0l3.36-3.37.42.18V58a1,1,0,0,0,1,1h6a1,1,0,0,0,1-1V53.25l.42-.18,3.36,3.37a1,1,0,0,0,1.41,0l4.24-4.25a1,1,0,0,0,0-1.41Zm-1.58,6.89-3.16-3.15A1,1,0,0,0,36.16,51a9.62,9.62,0,0,1-1.46.61,1,1,0,0,0-.7.95V57H30V52.54a1,1,0,0,0-.7-.95A9.62,9.62,0,0,1,27.84,51a1,1,0,0,0-1.17.18l-3.16,3.15-2.82-2.82,3.15-3.16A1,1,0,0,0,24,47.16a10.55,10.55,0,0,1-.61-1.46,1,1,0,0,0-.95-.7H18V41h4.46a1,1,0,0,0,.95-.7A10.55,10.55,0,0,1,24,38.84a1,1,0,0,0-.18-1.17l-3.15-3.16,2.82-2.82,3.16,3.15a1,1,0,0,0,1.17.18,9.62,9.62,0,0,1,1.46-.61,1,1,0,0,0,.7-.95V29h4v4.46a1,1,0,0,0,.7.95,9.62,9.62,0,0,1,1.46.61,1,1,0,0,0,1.17-.18l3.16-3.15,2.82,2.82-3.15,3.16A1,1,0,0,0,40,38.84a10.55,10.55,0,0,1,.61,1.46,1,1,0,0,0,.95.7H46v4H41.54a1,1,0,0,0-.95.7A10.55,10.55,0,0,1,40,47.16a1,1,0,0,0,.18,1.17l3.15,3.16ZM32,36a7,7,0,1,0,7,7A7,7,0,0,0,32,36Zm0,12a5,5,0,1,1,5-5A5,5,0,0,1,32,48Z" data-name="10 Web Browser Setting, Browser, Internet"/></svg>