<svg xmlns="http://www.w3.org/2000/svg" viewBox="0 0 64 64"><path d="M33,55V52h2V50H33V46h2V44H33V40h4V38H33V15.16A10,10,0,0,0,39,6h5.25a2.55,2.55,0,0,1,2.34,3.55A21.72,21.72,0,0,0,45,18c0,7.26,3,13.06,7,13.9v3.15h2V31a1,1,0,0,0-1-1c-3.25,0-6-5.5-6-12a20.05,20.05,0,0,1,1.43-7.67A4.55,4.55,0,0,0,44.25,4H37.94a1,1,0,0,0-.75.34s0,0,0,0c-5.49,4.48-10.83,4.48-16.32,0,0,0,0,0,0,0A1,1,0,0,0,20.06,4H11.81a4.55,4.55,0,0,0-4,6.74A15.4,15.4,0,0,1,10,18c0,5.89-2.31,11.12-5.26,11.9a1,1,0,0,0-.74,1V55a3,3,0,0,0,3,3H24a3,3,0,0,0,3-3V14.48a1,1,0,0,0-.67-.94,8,8,0,0,1-5.25-6.48A14,14,0,0,0,29,9.77a14,14,0,0,0,7.92-2.71,8,8,0,0,1-5.25,6.48,1,1,0,0,0-.67.94V55a3,3,0,0,0,3,3h4V56H34A1,1,0,0,1,33,55ZM6,44V40H25v4Zm19,2v4H6V46ZM24,56H7a1,1,0,0,1-1-1V52H25v3A1,1,0,0,1,24,56Zm1-40.84V38H6V31.58c3.52-1.54,6-7,6-13.58A17.28,17.28,0,0,0,9.58,9.78,2.55,2.55,0,0,1,11.81,6H19A10,10,0,0,0,25,15.16ZM59,44H57.66l1-1a1,1,0,0,0,0-1.41l-4.25-4.25a1,1,0,0,0-1.41,0l-1,1V37a1,1,0,0,0-1-1H45a1,1,0,0,0-1,1v1.34l-1-1a1,1,0,0,0-.71-.29,1,1,0,0,0-.7.29l-4.25,4.25a1,1,0,0,0,0,1.41l1,1H37a1,1,0,0,0-1,1v6a1,1,0,0,0,1,1h1.34l-1,1a1,1,0,0,0,0,1.41l4.25,4.25a1,1,0,0,0,1.41,0l1-1V59a1,1,0,0,0,1,1h6a1,1,0,0,0,1-1V57.66l1,1a1,1,0,0,0,.71.29,1,1,0,0,0,.7-.29l4.25-4.25a1,1,0,0,0,0-1.41l-1-1H59a1,1,0,0,0,1-1V45A1,1,0,0,0,59,44Zm-1,6H55.24a1,1,0,0,0-.7,1.71l2,1.95-2.83,2.83-1.95-2a1,1,0,0,0-1.71.7V58H46V55.24a1,1,0,0,0-1.71-.7l-1.95,2-2.83-2.83,2-1.95a1,1,0,0,0-.7-1.71H38V46h2.76a1,1,0,0,0,.7-1.71l-2-1.95,2.83-2.83,1.95,2a1,1,0,0,0,1.71-.7V38h4v2.76a1,1,0,0,0,1.71.7l1.95-2,2.83,2.83-2,1.95a1,1,0,0,0,.7,1.71H58ZM48,42a6,6,0,1,0,6,6A6,6,0,0,0,48,42Zm0,10a4,4,0,1,1,4-4A4,4,0,0,1,48,52Z" data-name="43 Vest, Car, Mechanic, Saftey"/></svg>